<svg width="29" height="29" viewBox="0 0 29 29" fill="none" xmlns="http://www.w3.org/2000/svg">
<rect width="29" height="29" rx="5" fill="#161616"/>
<g clip-path="url(#clip0_690_39)">
<path d="M22 11.0625C22 10.731 21.8683 10.413 21.6339 10.1786C21.3995 9.9442 21.0815 9.8125 20.75 9.8125H17.3125V9.1875C17.3125 8.85598 17.1808 8.53804 16.9464 8.30362C16.712 8.0692 16.394 7.9375 16.0625 7.9375H12.9375C12.606 7.9375 12.288 8.0692 12.0536 8.30362C11.8192 8.53804 11.6875 8.85598 11.6875 9.1875V9.8125H8.25001C7.91849 9.8125 7.60054 9.9442 7.36612 10.1786C7.1317 10.413 7.00001 10.731 7.00001 11.0625C7.00001 12.4906 6.84688 13.4281 7.62501 14.3875V19.8125C7.62501 20.144 7.7567 20.462 7.99112 20.6964C8.22554 20.9308 8.54349 21.0625 8.87501 21.0625H20.125C20.4565 21.0625 20.7745 20.9308 21.0089 20.6964C21.2433 20.462 21.375 20.144 21.375 19.8125V14.3875C22.1344 13.45 22 12.6562 22 11.0625ZM12.3125 9.1875C12.3125 9.02174 12.3784 8.86277 12.4956 8.74556C12.6128 8.62835 12.7717 8.5625 12.9375 8.5625H16.0625C16.2283 8.5625 16.3872 8.62835 16.5044 8.74556C16.6217 8.86277 16.6875 9.02174 16.6875 9.1875V9.8125H12.3125V9.1875ZM20.125 20.4375H8.87501C8.70925 20.4375 8.55028 20.3717 8.43306 20.2544C8.31585 20.1372 8.25001 19.9783 8.25001 19.8125V14.9625C9.15001 15.5656 9.61251 15.4375 13.25 15.4375V15.75C13.1671 15.75 13.0876 15.7829 13.029 15.8415C12.9704 15.9001 12.9375 15.9796 12.9375 16.0625C12.9375 16.1454 12.9704 16.2249 13.029 16.2835C13.0876 16.3421 13.1671 16.375 13.25 16.375C13.25 17 13.2094 17.1406 13.3906 17.2594C14.4063 17.9375 14.3719 17.9375 14.5 17.9375C14.6281 17.9375 14.5844 17.9375 15.6094 17.2594C15.7875 17.1438 15.75 17.0312 15.75 16.375C15.8329 16.375 15.9124 16.3421 15.971 16.2835C16.0296 16.2249 16.0625 16.1454 16.0625 16.0625C16.0625 15.9796 16.0296 15.9001 15.971 15.8415C15.9124 15.7829 15.8329 15.75 15.75 15.75V15.4375C19.2531 15.4375 19.8125 15.5906 20.75 14.9625V19.8125C20.75 19.9783 20.6842 20.1372 20.5669 20.2544C20.4497 20.3717 20.2908 20.4375 20.125 20.4375ZM13.25 13.875V13.25H15.75V13.875H13.25ZM15.125 14.5V15.75H13.875V14.5H15.125ZM13.875 16.375H15.125V16.8312L14.5 17.25L13.875 16.8312V16.375ZM21.375 12.625C21.375 13.2052 21.1445 13.7616 20.7343 14.1718C20.3241 14.582 19.7677 14.8125 19.1875 14.8125H15.75V14.5C15.9158 14.5 16.0747 14.4342 16.1919 14.3169C16.3092 14.1997 16.375 14.0408 16.375 13.875V13.25C16.375 13.0842 16.3092 12.9253 16.1919 12.8081C16.0747 12.6908 15.9158 12.625 15.75 12.625H13.25C13.0842 12.625 12.9253 12.6908 12.8081 12.8081C12.6909 12.9253 12.625 13.0842 12.625 13.25V13.875C12.625 14.0408 12.6909 14.1997 12.8081 14.3169C12.9253 14.4342 13.0842 14.5 13.25 14.5V14.8125H9.81251C9.23235 14.8125 8.67595 14.582 8.26571 14.1718C7.85547 13.7616 7.62501 13.2052 7.62501 12.625V11.0625C7.62501 10.8967 7.69085 10.7378 7.80806 10.6206C7.92528 10.5033 8.08425 10.4375 8.25001 10.4375H20.75C20.9158 10.4375 21.0747 10.5033 21.1919 10.6206C21.3092 10.7378 21.375 10.8967 21.375 11.0625V12.625Z" fill="white"/>
</g>
<defs>
<clipPath id="clip0_690_39">
<rect width="15" height="15" fill="white" transform="translate(7 7)"/>
</clipPath>
</defs>
</svg>
