<svg width="29" height="29" viewBox="0 0 29 29" fill="none" xmlns="http://www.w3.org/2000/svg">
<rect width="29" height="29" rx="5" fill="#161616"/>
<path d="M16.1645 11.2568C15.6544 11.2568 15.1559 11.4081 14.7318 11.6915C14.3078 11.9749 13.9773 12.3778 13.7822 12.849C13.5872 13.3203 13.5363 13.8388 13.636 14.339C13.7357 14.8392 13.9815 15.2986 14.3423 15.6591C14.7032 16.0196 15.1628 16.2649 15.6631 16.3641C16.1634 16.4633 16.6819 16.4118 17.153 16.2163C17.624 16.0207 18.0265 15.6899 18.3095 15.2655C18.5925 14.8412 18.7432 14.3425 18.7427 13.8324C18.7413 13.1493 18.4691 12.4946 17.9859 12.0118C17.5026 11.529 16.8476 11.2575 16.1645 11.2568ZM16.1645 13.5677C16.3445 13.5681 16.5186 13.6317 16.6565 13.7474C16.7944 13.8632 16.8872 14.0237 16.9187 14.2009C16.9503 14.3781 16.9185 14.5608 16.829 14.717C16.7395 14.8732 16.598 14.9929 16.4292 15.0554V15.2327C16.4292 15.3029 16.4013 15.3703 16.3517 15.4199C16.302 15.4695 16.2347 15.4974 16.1645 15.4974C16.0943 15.4974 16.0269 15.4695 15.9773 15.4199C15.9277 15.3703 15.8998 15.3029 15.8998 15.2327V15.0554C15.7521 15.0013 15.6245 14.9034 15.5341 14.7746C15.4437 14.6459 15.3949 14.4926 15.3942 14.3354C15.3942 14.2652 15.4221 14.1978 15.4717 14.1482C15.5214 14.0985 15.5887 14.0707 15.6589 14.0707C15.7291 14.0707 15.7964 14.0985 15.8461 14.1482C15.8957 14.1978 15.9236 14.2652 15.9236 14.3354C15.9201 14.3689 15.9236 14.4029 15.9341 14.435C15.9445 14.4671 15.9615 14.4967 15.9841 14.5217C16.0067 14.5468 16.0343 14.5669 16.0652 14.5806C16.096 14.5944 16.1294 14.6015 16.1632 14.6015C16.1969 14.6015 16.2303 14.5944 16.2611 14.5806C16.292 14.5669 16.3196 14.5468 16.3422 14.5217C16.3648 14.4967 16.3818 14.4671 16.3923 14.435C16.4027 14.4029 16.4062 14.3689 16.4027 14.3354C16.4027 14.2722 16.3776 14.2116 16.3329 14.1669C16.2883 14.1222 16.2277 14.0971 16.1645 14.0971C15.9838 14.0986 15.8084 14.0361 15.6694 13.9206C15.5304 13.8052 15.4368 13.6443 15.4051 13.4664C15.3734 13.2885 15.4056 13.1052 15.4962 12.9488C15.5867 12.7924 15.7297 12.6732 15.8998 12.6121V12.4348C15.8998 12.3646 15.9277 12.2972 15.9773 12.2476C16.0269 12.198 16.0943 12.1701 16.1645 12.1701C16.2347 12.1701 16.302 12.198 16.3517 12.2476C16.4013 12.2972 16.4292 12.3646 16.4292 12.4348V12.6174C16.5762 12.6714 16.7031 12.7691 16.793 12.8973C16.8829 13.0255 16.9315 13.1782 16.9321 13.3348C16.9321 13.405 16.9042 13.4723 16.8546 13.522C16.805 13.5716 16.7376 13.5995 16.6674 13.5995C16.5972 13.5995 16.5299 13.5716 16.4802 13.522C16.4306 13.4723 16.4027 13.405 16.4027 13.3348C16.4031 13.3034 16.3971 13.2723 16.3853 13.2432C16.3735 13.2141 16.3559 13.1877 16.3337 13.1655C16.3115 13.1433 16.2851 13.1258 16.2561 13.114C16.227 13.1021 16.1959 13.0962 16.1645 13.0965C16.1013 13.0965 16.0407 13.1216 15.996 13.1663C15.9513 13.211 15.9262 13.2716 15.9262 13.3348C15.9262 13.398 15.9513 13.4586 15.996 13.5032C16.0407 13.5479 16.1013 13.573 16.1645 13.573V13.5677ZM12.6174 13.5677H11.8233C11.7531 13.5677 11.6858 13.5956 11.6361 13.6452C11.5865 13.6949 11.5586 13.7622 11.5586 13.8324C11.5586 13.9026 11.5865 13.97 11.6361 14.0196C11.6858 14.0692 11.7531 14.0971 11.8233 14.0971H12.6174C12.6876 14.0971 12.755 14.0692 12.8046 14.0196C12.8542 13.97 12.8821 13.9026 12.8821 13.8324C12.8821 13.7622 12.8542 13.6949 12.8046 13.6452C12.755 13.5956 12.6876 13.5677 12.6174 13.5677ZM20.5004 13.5677H19.7062C19.636 13.5677 19.5687 13.5956 19.5191 13.6452C19.4694 13.6949 19.4415 13.7622 19.4415 13.8324C19.4415 13.9026 19.4694 13.97 19.5191 14.0196C19.5687 14.0692 19.636 14.0971 19.7062 14.0971H20.5004C20.5706 14.0971 20.6379 14.0692 20.6875 14.0196C20.7372 13.97 20.7651 13.9026 20.7651 13.8324C20.7651 13.7622 20.7372 13.6949 20.6875 13.6452C20.6379 13.5956 20.5706 13.5677 20.5004 13.5677Z" fill="white"/>
<path d="M22.5573 8.93311H9.77465C9.46428 8.93378 9.16665 9.05665 8.9462 9.27513C8.72574 9.4936 8.60019 9.7901 8.59671 10.1005C8.28888 10.1039 7.99462 10.2277 7.77694 10.4454C7.55926 10.6631 7.43544 10.9573 7.432 11.2652C7.12165 11.2686 6.82515 11.3942 6.60667 11.6147C6.3882 11.8351 6.26532 12.1327 6.26465 12.4431V19.8866C6.26465 20.1993 6.38867 20.4992 6.6095 20.7205C6.83033 20.9418 7.12994 21.0665 7.44259 21.0672H20.2279C20.5378 21.0659 20.8347 20.9427 21.0546 20.7243C21.2745 20.5059 21.3997 20.2098 21.4032 19.8999C21.7115 19.8964 22.0061 19.7722 22.2239 19.554C22.4416 19.3357 22.5651 19.0408 22.5679 18.7325C22.8785 18.7297 23.1754 18.6044 23.394 18.3838C23.6126 18.1632 23.7352 17.8652 23.7352 17.5546V10.111C23.7345 9.79885 23.6102 9.49964 23.3895 9.27889C23.1687 9.05813 22.8695 8.9338 22.5573 8.93311ZM21.3926 19.3705H8.6073C8.43529 19.3705 8.27034 19.3021 8.14872 19.1805C8.02709 19.0589 7.95877 18.8939 7.95877 18.7219V11.2784C7.95874 11.1082 8.02561 10.9448 8.14496 10.8235C8.2643 10.7022 8.42655 10.6326 8.59671 10.6299V17.5546C8.59671 17.867 8.72081 18.1666 8.94172 18.3875C9.0511 18.4969 9.18096 18.5837 9.32387 18.6429C9.46678 18.702 9.61996 18.7325 9.77465 18.7325H22.0385C22.0364 18.9024 21.9674 19.0647 21.8465 19.1841C21.7256 19.3035 21.5625 19.3705 21.3926 19.3705ZM22.5944 15.879C22.5944 15.9492 22.5665 16.0165 22.5168 16.0662C22.4672 16.1158 22.3999 16.1437 22.3296 16.1437C22.0158 16.1437 21.7149 16.2684 21.493 16.4903C21.2711 16.7122 21.1464 17.0131 21.1464 17.3269C21.1464 17.3971 21.1185 17.4645 21.0689 17.5141C21.0192 17.5637 20.9519 17.5916 20.8817 17.5916H11.4502C11.38 17.5916 11.3127 17.5637 11.2631 17.5141C11.2134 17.4645 11.1855 17.3971 11.1855 17.3269C11.1855 17.0131 11.0609 16.7122 10.839 16.4903C10.6171 16.2684 10.3161 16.1437 10.0023 16.1437C9.93209 16.1437 9.86476 16.1158 9.81512 16.0662C9.76548 16.0165 9.73759 15.9492 9.73759 15.879V11.7893C9.73759 11.7191 9.76548 11.6517 9.81512 11.6021C9.86476 11.5525 9.93209 11.5246 10.0023 11.5246C10.3161 11.5246 10.6171 11.3999 10.839 11.178C11.0609 10.9561 11.1855 10.6552 11.1855 10.3413C11.1855 10.2711 11.2134 10.2038 11.2631 10.1542C11.3127 10.1045 11.38 10.0766 11.4502 10.0766H20.8817C20.9519 10.0766 21.0192 10.1045 21.0689 10.1542C21.1185 10.2038 21.1464 10.2711 21.1464 10.3413C21.1464 10.6552 21.2711 10.9561 21.493 11.178C21.7149 11.3999 22.0158 11.5246 22.3296 11.5246C22.3999 11.5246 22.4672 11.5525 22.5168 11.6021C22.5665 11.6517 22.5944 11.7191 22.5944 11.7893V15.879Z" fill="white"/>
</svg>
