<svg width="49" height="49" viewBox="0 0 49 49" fill="none" xmlns="http://www.w3.org/2000/svg">
<rect width="49" height="49" rx="5" fill="#161616"/>
<g clip-path="url(#clip0_689_18)">
<path d="M27.3126 19.0205C26.4508 19.0205 25.6084 19.2761 24.8919 19.755C24.1754 20.2339 23.6171 20.9145 23.2875 21.7108C22.9579 22.5071 22.8719 23.3832 23.0403 24.2284C23.2088 25.0735 23.6241 25.8497 24.2338 26.4588C24.8435 27.0679 25.6202 27.4824 26.4655 27.65C27.3108 27.8176 28.1869 27.7307 28.9828 27.4003C29.7788 27.0699 30.4588 26.5108 30.937 25.7938C31.4151 25.0768 31.6698 24.2342 31.669 23.3724C31.6666 22.2181 31.2067 21.1119 30.3901 20.2962C29.5735 19.4804 28.4669 19.0217 27.3126 19.0205ZM27.3126 22.9251C27.6168 22.9257 27.911 23.0332 28.144 23.2287C28.3769 23.4243 28.5338 23.6955 28.587 23.9949C28.6403 24.2944 28.5867 24.603 28.4355 24.8669C28.2843 25.1308 28.0452 25.3332 27.7599 25.4387V25.7384C27.7599 25.857 27.7128 25.9708 27.6289 26.0546C27.545 26.1385 27.4312 26.1856 27.3126 26.1856C27.194 26.1856 27.0802 26.1385 26.9964 26.0546C26.9125 25.9708 26.8654 25.857 26.8654 25.7384V25.4387C26.6158 25.3474 26.4002 25.1819 26.2475 24.9644C26.0947 24.7469 26.0123 24.4879 26.0111 24.2222C26.0111 24.1035 26.0582 23.9898 26.1421 23.9059C26.226 23.822 26.3397 23.7749 26.4584 23.7749C26.577 23.7749 26.6907 23.822 26.7746 23.9059C26.8585 23.9898 26.9056 24.1035 26.9056 24.2222C26.8996 24.2789 26.9057 24.3362 26.9233 24.3905C26.9409 24.4447 26.9697 24.4947 27.0079 24.5371C27.0461 24.5795 27.0927 24.6134 27.1448 24.6366C27.1969 24.6598 27.2533 24.6718 27.3104 24.6718C27.3674 24.6718 27.4238 24.6598 27.4759 24.6366C27.5281 24.6134 27.5747 24.5795 27.6129 24.5371C27.651 24.4947 27.6799 24.4447 27.6975 24.3905C27.7151 24.3362 27.7211 24.2789 27.7152 24.2222C27.7152 24.1154 27.6728 24.013 27.5973 23.9375C27.5218 23.862 27.4194 23.8196 27.3126 23.8196C27.0073 23.8221 26.711 23.7165 26.4762 23.5214C26.2413 23.3264 26.0831 23.0545 26.0295 22.7539C25.9759 22.4534 26.0305 22.1435 26.1835 21.8793C26.3364 21.6151 26.578 21.4136 26.8654 21.3105V21.0108C26.8654 20.8922 26.9125 20.7784 26.9964 20.6946C27.0802 20.6107 27.194 20.5636 27.3126 20.5636C27.4312 20.5636 27.545 20.6107 27.6289 20.6946C27.7128 20.7784 27.7599 20.8922 27.7599 21.0108V21.3194C28.0083 21.4107 28.2228 21.5757 28.3747 21.7923C28.5266 22.009 28.6086 22.2669 28.6097 22.5315C28.6097 22.6501 28.5626 22.7639 28.4787 22.8478C28.3948 22.9317 28.281 22.9788 28.1624 22.9788C28.0438 22.9788 27.93 22.9317 27.8462 22.8478C27.7623 22.7639 27.7152 22.6501 27.7152 22.5315C27.7158 22.4785 27.7058 22.4259 27.6857 22.3768C27.6657 22.3277 27.6361 22.283 27.5986 22.2455C27.5611 22.208 27.5165 22.1784 27.4674 22.1584C27.4183 22.1384 27.3657 22.1284 27.3126 22.129C27.2059 22.129 27.1035 22.1714 27.028 22.2469C26.9525 22.3224 26.9101 22.4248 26.9101 22.5315C26.9101 22.6383 26.9525 22.7407 27.028 22.8161C27.1035 22.8916 27.2059 22.934 27.3126 22.934V22.9251ZM21.3193 22.9251H19.9775C19.8589 22.9251 19.7452 22.9722 19.6613 23.0561C19.5774 23.14 19.5303 23.2537 19.5303 23.3724C19.5303 23.491 19.5774 23.6047 19.6613 23.6886C19.7452 23.7725 19.8589 23.8196 19.9775 23.8196H21.3193C21.4379 23.8196 21.5517 23.7725 21.6356 23.6886C21.7195 23.6047 21.7666 23.491 21.7666 23.3724C21.7666 23.2537 21.7195 23.14 21.6356 23.0561C21.5517 22.9722 21.4379 22.9251 21.3193 22.9251ZM34.6388 22.9251H33.297C33.1784 22.9251 33.0646 22.9722 32.9807 23.0561C32.8968 23.14 32.8497 23.2537 32.8497 23.3724C32.8497 23.491 32.8968 23.6047 32.9807 23.6886C33.0646 23.7725 33.1784 23.8196 33.297 23.8196H34.6388C34.7574 23.8196 34.8712 23.7725 34.955 23.6886C35.0389 23.6047 35.086 23.491 35.086 23.3724C35.086 23.2537 35.0389 23.14 34.955 23.0561C34.8712 22.9722 34.7574 22.9251 34.6388 22.9251Z" fill="white"/>
<path d="M38.1139 15.0933H16.5157C15.9912 15.0944 15.4883 15.302 15.1159 15.6712C14.7434 16.0403 14.5312 16.5413 14.5253 17.0657C14.0052 17.0715 13.508 17.2807 13.1402 17.6485C12.7724 18.0163 12.5632 18.5135 12.5574 19.0336C12.033 19.0395 11.532 19.2517 11.1629 19.6242C10.7937 19.9966 10.5861 20.4995 10.585 21.024V33.6009C10.585 34.1292 10.7945 34.6359 11.1676 35.0099C11.5408 35.3839 12.047 35.5945 12.5753 35.5957H34.178C34.7017 35.5934 35.2034 35.3853 35.5749 35.0163C35.9465 34.6472 36.158 34.1469 36.1639 33.6233C36.6847 33.6175 37.1826 33.4077 37.5505 33.0389C37.9185 32.6701 38.1272 32.1718 38.1318 31.6509C38.6566 31.6462 39.1582 31.4344 39.5276 31.0617C39.897 30.6889 40.1042 30.1854 40.1042 29.6606V17.0836C40.103 16.5561 39.893 16.0505 39.52 15.6775C39.147 15.3045 38.6414 15.0944 38.1139 15.0933ZM36.146 32.7288H14.5432C14.2526 32.7288 13.9739 32.6133 13.7684 32.4078C13.5629 32.2023 13.4474 31.9236 13.4474 31.633V19.056C13.4474 18.7685 13.5604 18.4924 13.762 18.2874C13.9637 18.0824 14.2378 17.9649 14.5253 17.9602V29.6606C14.5253 30.1884 14.735 30.6947 15.1083 31.0679C15.2931 31.2528 15.5125 31.3994 15.754 31.4994C15.9955 31.5994 16.2543 31.6509 16.5157 31.6509H37.2373C37.2338 31.938 37.1172 32.2121 36.9129 32.4139C36.7087 32.6157 36.4331 32.7288 36.146 32.7288ZM38.1765 26.8294C38.1765 26.948 38.1294 27.0618 38.0455 27.1457C37.9617 27.2295 37.8479 27.2767 37.7293 27.2767C37.199 27.2767 36.6905 27.4873 36.3156 27.8622C35.9406 28.2372 35.73 28.7457 35.73 29.2759C35.73 29.3945 35.6829 29.5083 35.599 29.5922C35.5151 29.6761 35.4014 29.7232 35.2827 29.7232H19.3468C19.2282 29.7232 19.1144 29.6761 19.0306 29.5922C18.9467 29.5083 18.8996 29.3945 18.8996 29.2759C18.8996 28.7457 18.6889 28.2372 18.314 27.8622C17.9391 27.4873 17.4305 27.2767 16.9003 27.2767C16.7817 27.2767 16.6679 27.2295 16.584 27.1457C16.5002 27.0618 16.453 26.948 16.453 26.8294V19.9192C16.453 19.8006 16.5002 19.6868 16.584 19.603C16.6679 19.5191 16.7817 19.472 16.9003 19.472C17.4305 19.472 17.9391 19.2613 18.314 18.8864C18.6889 18.5115 18.8996 18.0029 18.8996 17.4727C18.8996 17.3541 18.9467 17.2403 19.0306 17.1564C19.1144 17.0726 19.2282 17.0254 19.3468 17.0254H35.2827C35.4014 17.0254 35.5151 17.0726 35.599 17.1564C35.6829 17.2403 35.73 17.3541 35.73 17.4727C35.73 18.0029 35.9406 18.5115 36.3156 18.8864C36.6905 19.2613 37.199 19.472 37.7293 19.472C37.8479 19.472 37.9617 19.5191 38.0455 19.603C38.1294 19.6868 38.1765 19.8006 38.1765 19.9192V26.8294Z" fill="white"/>
</g>
<defs>
<clipPath id="clip0_689_18">
<rect width="30.4138" height="30.4138" fill="white" transform="translate(10.1377 10.1377)"/>
</clipPath>
</defs>
</svg>
