<svg width="29" height="29" viewBox="0 0 29 29" fill="none" xmlns="http://www.w3.org/2000/svg">
<rect width="29" height="29" rx="5" fill="#161616"/>
<path d="M9.63373 14.6075L15.0037 10.2875L20.3737 14.7675C20.551 14.9144 20.7735 14.9956 21.0037 14.9975C21.1506 14.9977 21.2958 14.9656 21.4289 14.9034C21.562 14.8412 21.6797 14.7504 21.7737 14.6375C21.8579 14.5364 21.9214 14.4198 21.9604 14.2942C21.9995 14.1686 22.0133 14.0365 22.0013 13.9055C21.9892 13.7745 21.9514 13.6472 21.89 13.5309C21.8287 13.4145 21.745 13.3114 21.6437 13.2275L15.6437 8.22749C15.4648 8.08041 15.2404 8 15.0087 8C14.7771 8 14.5527 8.08041 14.3737 8.22749L8.37373 13.0575C8.271 13.14 8.1856 13.242 8.12242 13.3577C8.05925 13.4733 8.01955 13.6003 8.00561 13.7313C7.99167 13.8623 8.00377 13.9948 8.0412 14.1212C8.07863 14.2475 8.14066 14.3652 8.22373 14.4675C8.30696 14.5695 8.40952 14.654 8.52551 14.7163C8.64151 14.7786 8.76865 14.8173 8.89965 14.8303C9.03065 14.8433 9.16294 14.8303 9.28891 14.7921C9.41488 14.7539 9.53206 14.6911 9.63373 14.6075Z" fill="white"/>
<path d="M15.6437 15.2275C15.4648 15.0804 15.2404 15 15.0087 15C14.7771 15 14.5527 15.0804 14.3737 15.2275L8.37373 20.0575C8.271 20.14 8.1856 20.242 8.12242 20.3577C8.05925 20.4733 8.01955 20.6003 8.00561 20.7313C7.99167 20.8623 8.00377 20.9948 8.0412 21.1212C8.07863 21.2475 8.14066 21.3652 8.22373 21.4675C8.30625 21.5702 8.40826 21.6556 8.5239 21.7188C8.63953 21.782 8.76652 21.8217 8.89754 21.8356C9.02857 21.8495 9.16106 21.8374 9.2874 21.8C9.41374 21.7626 9.53144 21.7006 9.63373 21.6175L15.0037 17.2875L20.3737 21.7675C20.551 21.9144 20.7735 21.9956 21.0037 21.9975C21.1506 21.9977 21.2958 21.9656 21.4289 21.9034C21.562 21.8412 21.6797 21.7504 21.7737 21.6375C21.8579 21.5364 21.9214 21.4198 21.9604 21.2942C21.9995 21.1686 22.0133 21.0365 22.0013 20.9055C21.9892 20.7745 21.9514 20.6472 21.89 20.5309C21.8287 20.4145 21.745 20.3114 21.6437 20.2275L15.6437 15.2275Z" fill="white"/>
</svg>
